<svg width="316" height="316" viewBox="0 0 316 316" fill="none" xmlns="http://www.w3.org/2000/svg">
<rect width="316" height="316" rx="35" fill="url(#paint0_linear_594_1054)"/>
<path fill-rule="evenodd" clip-rule="evenodd" d="M88.8106 207.9C102.938 227.091 121.557 238.517 144.668 242.177C167.779 245.838 188.849 240.698 207.881 226.759C227.248 212.871 238.782 194.242 242.483 170.872C246.185 147.501 240.944 126.399 226.759 107.567C212.966 88.4283 194.515 77.0287 171.405 73.3684C148.294 69.708 127.055 74.8212 107.689 88.7082C88.714 102.288 77.3759 120.764 73.6743 144.135C69.9728 167.506 75.0183 188.76 88.8106 207.9ZM185.364 99.9568C192.412 109.658 190.262 123.237 180.56 130.285L178.541 131.752L191.797 149.998L208.795 137.649C215.705 147.16 213.773 160.398 204.554 167.555L209.587 174.484C213.111 179.334 212.036 186.124 207.185 189.648C202.335 193.172 195.545 192.097 192.021 187.246L186.994 180.327L168.228 193.96L174.859 203.086C178.383 207.937 177.308 214.726 172.457 218.251C167.606 221.776 160.817 220.7 157.293 215.849L150.662 206.724L140.895 213.819C136.044 217.344 129.255 216.268 125.731 211.417C122.206 206.567 123.282 199.777 128.132 196.254L137.9 189.157L124.644 170.911L116.805 176.606C111.954 180.131 105.165 179.055 101.641 174.205C98.1164 169.354 99.1917 162.564 104.043 159.04L111.881 153.345L110.972 152.094C103.923 142.392 106.074 128.814 115.775 121.765L129.447 140.583L148.213 126.949L148.001 126.658C140.952 116.956 143.103 103.378 152.805 96.329L165.779 114.186L185.364 99.9568ZM142.21 158.149L160.975 144.515L174.231 162.761L155.466 176.394L142.21 158.149Z" fill="white"/>
<defs>
<linearGradient id="paint0_linear_594_1054" x1="158" y1="-126" x2="158" y2="316" gradientUnits="userSpaceOnUse">
<stop stop-color="#111115"/>
<stop offset="1" stop-color="#8853F4"/>
</linearGradient>
</defs>
</svg>
